<?xml version="1.0"?>
<svg xmlns="http://www.w3.org/2000/svg" xmlns:xlink="http://www.w3.org/1999/xlink" xmlns:svgjs="http://svgjs.com/svgjs" version="1.1" width="512" height="512" x="0" y="0" viewBox="0 0 74 74" style="enable-background:new 0 0 512 512" xml:space="preserve" class=""><g><path xmlns="http://www.w3.org/2000/svg" d="m70 72h-66a2 2 0 0 1 -2-2v-45a1 1 0 0 1 1-1h68a1 1 0 0 1 1 1v45a2 2 0 0 1 -2 2zm-66-46v44h66v-44z" fill="#abe497" data-original="#000000" style="" class=""/><path xmlns="http://www.w3.org/2000/svg" d="m71 26h-68a1 1 0 0 1 -1-1v-14a2 2 0 0 1 2-2h10.33a1 1 0 0 1 0 2h-10.33v13h66v-13h-10.33a1 1 0 0 1 0-2h10.33a2 2 0 0 1 2 2v14a1 1 0 0 1 -1 1z" fill="#abe497" data-original="#000000" style="" class=""/><path xmlns="http://www.w3.org/2000/svg" d="m53 11h-32a1 1 0 0 1 0-2h32a1 1 0 0 1 0 2z" fill="#abe497" data-original="#000000" style="" class=""/><path xmlns="http://www.w3.org/2000/svg" d="m56.33 18a4.33 4.33 0 0 1 -4.33-4.33v-7.34a4.34 4.34 0 0 1 8.67 0v7.34a4.34 4.34 0 0 1 -4.34 4.33zm0-14a2.34 2.34 0 0 0 -2.33 2.33v7.34a2.34 2.34 0 0 0 4.67 0v-7.34a2.34 2.34 0 0 0 -2.34-2.33z" fill="#abe497" data-original="#000000" style="" class=""/><path xmlns="http://www.w3.org/2000/svg" d="m17.67 18a4.34 4.34 0 0 1 -4.34-4.33v-7.34a4.34 4.34 0 0 1 8.67 0v7.34a4.33 4.33 0 0 1 -4.33 4.33zm0-14a2.34 2.34 0 0 0 -2.34 2.33v7.34a2.34 2.34 0 0 0 4.67 0v-7.34a2.34 2.34 0 0 0 -2.33-2.33z" fill="#abe497" data-original="#000000" style="" class=""/><path xmlns="http://www.w3.org/2000/svg" d="m60.75 40h-5a2 2 0 0 1 -2-2v-5a2 2 0 0 1 2-2h5a2 2 0 0 1 2 2v5a2 2 0 0 1 -2 2zm-5-7v5h5v-5z" fill="#abe497" data-original="#000000" style="" class=""/><path xmlns="http://www.w3.org/2000/svg" d="m60.75 52.5h-5a2 2 0 0 1 -2-2v-5a2 2 0 0 1 2-2h5a2 2 0 0 1 2 2v5a2 2 0 0 1 -2 2zm-5-7v5h5v-5z" fill="#abe497" data-original="#000000" style="" class=""/><path xmlns="http://www.w3.org/2000/svg" d="m46.58 40h-5a2 2 0 0 1 -2-2v-5a2 2 0 0 1 2-2h5a2 2 0 0 1 2 2v5a2 2 0 0 1 -2 2zm-5-7v5h5v-5z" fill="#abe497" data-original="#000000" style="" class=""/><path xmlns="http://www.w3.org/2000/svg" d="m46.58 52.5h-5a2 2 0 0 1 -2-2v-5a2 2 0 0 1 2-2h5a2 2 0 0 1 2 2v5a2 2 0 0 1 -2 2zm-5-7v5h5v-5z" fill="#abe497" data-original="#000000" style="" class=""/><path xmlns="http://www.w3.org/2000/svg" d="m46.58 65h-5a2 2 0 0 1 -2-2v-5a2 2 0 0 1 2-2h5a2 2 0 0 1 2 2v5a2 2 0 0 1 -2 2zm-5-7v5h5v-5z" fill="#abe497" data-original="#000000" style="" class=""/><path xmlns="http://www.w3.org/2000/svg" d="m32.42 40h-5a2 2 0 0 1 -2-2v-5a2 2 0 0 1 2-2h5a2 2 0 0 1 2 2v5a2 2 0 0 1 -2 2zm-5-7v5h5v-5z" fill="#abe497" data-original="#000000" style="" class=""/><path xmlns="http://www.w3.org/2000/svg" d="m32.42 52.5h-5a2 2 0 0 1 -2-2v-5a2 2 0 0 1 2-2h5a2 2 0 0 1 2 2v5a2 2 0 0 1 -2 2zm-5-7v5h5v-5z" fill="#abe497" data-original="#000000" style="" class=""/><path xmlns="http://www.w3.org/2000/svg" d="m32.42 65h-5a2 2 0 0 1 -2-2v-5a2 2 0 0 1 2-2h5a2 2 0 0 1 2 2v5a2 2 0 0 1 -2 2zm-5-7v5h5v-5z" fill="#abe497" data-original="#000000" style="" class=""/><path xmlns="http://www.w3.org/2000/svg" d="m18.25 52.5h-5a2 2 0 0 1 -2-2v-5a2 2 0 0 1 2-2h5a2 2 0 0 1 2 2v5a2 2 0 0 1 -2 2zm-5-7v5h5v-5z" fill="#abe497" data-original="#000000" style="" class=""/><path xmlns="http://www.w3.org/2000/svg" d="m18.25 65h-5a2 2 0 0 1 -2-2v-5a2 2 0 0 1 2-2h5a2 2 0 0 1 2 2v5a2 2 0 0 1 -2 2zm-5-7v5h5v-5z" fill="#abe497" data-original="#000000" style="" class=""/></g></svg>
