<svg width="129" height="128" viewBox="0 0 129 128" fill="none" xmlns="http://www.w3.org/2000/svg">
<path d="M122.729 37.3335V5.3335H90.729V16.0002H37.3957V5.3335H5.39571V37.3335H16.0624V90.6668H5.39571V122.667H37.3957V112H90.729V122.667H122.729V90.6668H112.062V37.3335H122.729ZM16.0624 16.0002H26.729V26.6668H16.0624V16.0002ZM26.729 112H16.0624V101.334H26.729V112ZM90.729 101.334H37.3957V90.6668H26.729V37.3335H37.3957V26.6668H90.729V37.3335H101.396V90.6668H90.729V101.334ZM112.062 112H101.396V101.334H112.062V112ZM101.396 26.6668V16.0002H112.062V26.6668H101.396ZM73.289 74.6668H54.6757L50.7824 85.3335H42.1424L60.2757 37.3335H67.7424L85.9291 85.3335H77.2357L73.289 74.6668V74.6668ZM57.0757 67.9468H70.9957L64.0624 47.5202L57.0757 67.9468V67.9468Z" fill="#ABE497"/>
</svg>
