<svg width="52" height="48" viewBox="0 0 52 48" fill="none" xmlns="http://www.w3.org/2000/svg">
<path fill-rule="evenodd" clip-rule="evenodd" d="M26.9308 0C13.3701 0 2.37692 10.7452 2.37692 24C2.37692 37.2548 13.3701 48 26.9308 48C40.4915 48 51.4846 37.2548 51.4846 24C51.4846 10.7452 40.4915 0 26.9308 0ZM21.5323 11.2773C22.9291 11.2152 23.3755 11.2 26.932 11.2H26.9279C30.4855 11.2 30.9302 11.2152 32.3271 11.2773C33.7212 11.3397 34.6734 11.5555 35.5082 11.872C36.3703 12.1987 37.0988 12.636 37.8272 13.348C38.5556 14.0595 39.0031 14.7736 39.3386 15.6155C39.6606 16.4294 39.8816 17.3595 39.947 18.7222C40.0098 20.0876 40.0262 20.5238 40.0262 24.0001C40.0262 27.4764 40.0098 27.9116 39.947 29.277C39.8816 30.6391 39.6606 31.5695 39.3386 32.3837C39.0031 33.2253 38.5556 33.9394 37.8272 34.6509C37.0996 35.3629 36.37 35.8013 35.509 36.1283C34.6758 36.4448 33.7231 36.6605 32.329 36.7229C30.9321 36.7851 30.4872 36.8003 26.9304 36.8003C23.3741 36.8003 22.928 36.7851 21.5312 36.7229C20.1373 36.6605 19.1854 36.4448 18.3522 36.1283C17.4915 35.8013 16.7609 35.3629 16.0332 34.6509C15.3051 33.9394 14.8577 33.2253 14.5229 32.3834C14.1993 31.5695 13.9786 30.6394 13.9145 29.2767C13.8512 27.9114 13.8354 27.4764 13.8354 24.0001C13.8354 20.5238 13.8518 20.0873 13.9142 18.7219C13.977 17.3598 14.198 16.4294 14.5226 15.6152C14.8582 14.7736 15.3056 14.0595 16.0341 13.348C16.762 12.6363 17.4926 12.1989 18.3539 11.872C19.1865 11.5555 20.1381 11.3397 21.5323 11.2773Z" fill="#ABE497"/>
<path fill-rule="evenodd" clip-rule="evenodd" d="M25.7572 13.5066C25.9853 13.5063 26.2307 13.5064 26.4955 13.5065L26.932 13.5066C30.4285 13.5066 30.8429 13.5189 32.2237 13.5802C33.5005 13.6373 34.1935 13.8458 34.6551 14.021C35.2662 14.253 35.7019 14.5304 36.16 14.9784C36.6183 15.4264 36.9021 15.853 37.14 16.4504C37.3192 16.9011 37.5328 17.5784 37.5909 18.8264C37.6537 20.1758 37.6673 20.5811 37.6673 23.9971C37.6673 27.4132 37.6537 27.8185 37.5909 29.1678C37.5326 30.4159 37.3192 31.0932 37.14 31.5439C36.9026 32.1412 36.6183 32.5665 36.16 33.0143C35.7016 33.4623 35.2665 33.7396 34.6551 33.9716C34.194 34.1476 33.5005 34.3556 32.2237 34.4127C30.8432 34.474 30.4285 34.4874 26.932 34.4874C23.4352 34.4874 23.0208 34.474 21.6403 34.4127C20.3635 34.3551 19.6705 34.1466 19.2087 33.9714C18.5975 33.7394 18.161 33.462 17.7027 33.014C17.2443 32.566 16.9606 32.1404 16.7227 31.5428C16.5434 31.0921 16.3298 30.4148 16.2717 29.1668C16.209 27.8174 16.1964 27.4121 16.1964 23.9939C16.1964 20.5758 16.209 20.1726 16.2717 18.8232C16.3301 17.5752 16.5434 16.8979 16.7227 16.4466C16.96 15.8493 17.2443 15.4226 17.7027 14.9746C18.161 14.5266 18.5975 14.2493 19.2087 14.0168C19.6703 13.8408 20.3635 13.6328 21.6403 13.5754C22.8484 13.5221 23.3166 13.5061 25.7572 13.5034V13.5066ZM33.9223 15.632C33.0547 15.632 32.3508 16.3192 32.3508 17.1675C32.3508 18.0155 33.0547 18.7035 33.9223 18.7035C34.7899 18.7035 35.4938 18.0155 35.4938 17.1675C35.4938 16.3194 34.7899 15.6314 33.9223 15.6314V15.632ZM20.2069 24.0001C20.2069 20.37 23.2179 17.4268 26.9317 17.4267C30.6457 17.4267 33.656 20.3699 33.656 24.0001C33.656 27.6302 30.646 30.5721 26.932 30.5721C23.2181 30.5721 20.2069 27.6302 20.2069 24.0001Z" fill="#ABE497"/>
<path d="M26.932 19.7334C29.3427 19.7334 31.2972 21.6436 31.2972 24.0001C31.2972 26.3564 29.3427 28.2668 26.932 28.2668C24.5211 28.2668 22.5668 26.3564 22.5668 24.0001C22.5668 21.6436 24.5211 19.7334 26.932 19.7334V19.7334Z" fill="#ABE497"/>
</svg>
