<svg width="64" height="64" viewBox="0 0 64 64" fill="none" xmlns="http://www.w3.org/2000/svg">
<circle cx="32" cy="32" r="32" fill="#ABE497"/>
<g clip-path="url(#clip0)">
<path d="M22.689 31.4579L39.34 14.8529C39.8856 14.3092 40.7688 14.3101 41.3135 14.8557C41.8577 15.4013 41.8563 16.285 41.3106 16.8292L25.6507 32.4459L41.3112 48.0625C41.8568 48.6067 41.8582 49.4899 41.314 50.0355C41.041 50.309 40.6833 50.4458 40.3256 50.4458C39.9689 50.4458 39.6126 50.3099 39.3401 50.0383L22.689 33.4337C22.4262 33.1723 22.2787 32.8165 22.2787 32.4459C22.2787 32.0752 22.4266 31.7198 22.689 31.4579Z" fill="white"/>
</g>
<defs>
<clipPath id="clip0">
<rect width="36" height="36" fill="white" transform="matrix(-1 0 0 1 50 14.4458)"/>
</clipPath>
</defs>
</svg>
