<svg width="128" height="128" viewBox="0 0 128 128" fill="none" xmlns="http://www.w3.org/2000/svg">
<path d="M35.3067 57.5467C42.9867 72.64 55.36 84.96 70.4533 92.6933L82.1867 80.96C83.6267 79.52 85.76 79.04 87.6267 79.68C93.6 81.6533 100.053 82.72 106.667 82.72C109.6 82.72 112 85.12 112 88.0533V106.667C112 109.6 109.6 112 106.667 112C56.5867 112 16 71.4133 16 21.3333C16 18.4 18.4 16 21.3333 16H40C42.9333 16 45.3333 18.4 45.3333 21.3333C45.3333 28 46.4 34.4 48.3733 40.3733C48.96 42.24 48.5333 44.32 47.04 45.8133L35.3067 57.5467Z" fill="#ABE497"/>
</svg>
