<svg width="64" height="64" viewBox="0 0 64 64" fill="none" xmlns="http://www.w3.org/2000/svg">
<circle r="32" transform="matrix(-1 0 0 1 32 32)" fill="#ABE497"/>
<g clip-path="url(#clip0)">
<path d="M41.311 31.0121L24.66 14.4071C24.1144 13.8634 23.2312 13.8643 22.6865 14.4099C22.1423 14.9555 22.1437 15.8392 22.6894 16.3834L38.3493 32.0001L22.6888 47.6167C22.1432 48.1609 22.1418 49.0441 22.686 49.5897C22.959 49.8632 23.3167 50 23.6744 50C24.0311 50 24.3874 49.8641 24.6599 49.5925L41.311 32.9879C41.5738 32.7265 41.7213 32.3707 41.7213 32.0001C41.7213 31.6294 41.5734 31.274 41.311 31.0121Z" fill="white"/>
</g>
<defs>
<clipPath id="clip0">
<rect width="36" height="36" fill="white" transform="translate(14 14)"/>
</clipPath>
</defs>
</svg>
