<svg width="49" height="48" viewBox="0 0 49 48" fill="none" xmlns="http://www.w3.org/2000/svg">
<path fill-rule="evenodd" clip-rule="evenodd" d="M0.646606 24C0.646606 37.2548 11.3918 48 24.6466 48C37.9014 48 48.6466 37.2548 48.6466 24C48.6466 10.7452 37.9014 0 24.6466 0C11.3918 0 0.646606 10.7452 0.646606 24ZM20.2466 35L20.6549 28.8823L20.6546 28.882L31.7835 18.839C32.2719 18.4055 31.6769 18.1941 31.0285 18.5873L17.2939 27.2523L11.3613 25.4007C10.0801 25.0084 10.0709 24.128 11.6489 23.4951L34.7669 14.5809C35.8228 14.1015 36.8419 14.8345 36.4388 16.4505L32.5018 35.0031C32.2269 36.3215 31.4303 36.6368 30.3266 36.0278L24.3293 31.5969L21.4466 34.4C21.4375 34.4088 21.4285 34.4176 21.4195 34.4264C21.0971 34.7403 20.8303 35 20.2466 35Z" fill="#3B3838"/>
</svg>
