<svg width="50" height="48" viewBox="0 0 50 48" fill="none" xmlns="http://www.w3.org/2000/svg">
<path fill-rule="evenodd" clip-rule="evenodd" d="M25.2462 0C11.6855 0 0.692322 10.7452 0.692322 24C0.692322 37.2548 11.6855 48 25.2462 48C38.8069 48 49.8 37.2548 49.8 24C49.8 10.7452 38.8069 0 25.2462 0ZM27.2454 31.5762C27.0033 31.8257 26.5306 31.8761 26.5306 31.8761H24.9652C24.9652 31.8761 21.5117 32.0752 18.4693 29.037C15.1516 25.7222 12.2219 19.1455 12.2219 19.1455C12.2219 19.1455 12.0528 18.7141 12.236 18.5064C12.4423 18.2717 13.0046 18.2569 13.0046 18.2569L16.7464 18.2336C16.7464 18.2336 17.0987 18.2889 17.351 18.4671C17.5598 18.6146 17.6764 18.8887 17.6764 18.8887C17.6764 18.8887 18.281 20.3562 19.0816 21.6835C20.6457 24.2756 21.3733 24.8422 21.9037 24.5644C22.6774 24.1601 22.4455 20.9006 22.4455 20.9006C22.4455 20.9006 22.4596 19.7183 22.0561 19.191C21.7435 18.783 21.1543 18.6637 20.8942 18.6306C20.6829 18.6035 21.0287 18.134 21.4771 17.9239C22.1509 17.608 23.3397 17.5896 24.7449 17.6031C25.8401 17.6141 26.1553 17.6793 26.5831 17.7788C27.5761 18.0087 27.5451 18.7455 27.4782 20.3357C27.4582 20.8113 27.435 21.3631 27.435 22.0006C27.435 22.1439 27.4306 22.2966 27.4262 22.4537C27.4029 23.2683 27.3763 24.2012 27.9359 24.5485C28.2228 24.7254 28.9235 24.5743 30.6772 21.7179C31.5085 20.3635 32.1311 18.7719 32.1311 18.7719C32.1311 18.7719 32.2682 18.488 32.4795 18.3663C32.696 18.2422 32.9881 18.2803 32.9881 18.2803L36.9258 18.2569C36.9258 18.2569 38.1095 18.1205 38.3004 18.6343C38.5015 19.1713 37.8584 20.4274 36.2495 22.4849C34.7251 24.4347 33.9823 25.1541 34.0485 25.7892C34.097 26.2546 34.5798 26.6748 35.5078 27.5006C37.4418 29.2235 37.9602 30.1299 38.0848 30.3477C38.0951 30.3657 38.1027 30.379 38.1082 30.3877C38.9754 31.7679 37.1462 31.8761 37.1462 31.8761L33.6478 31.9228C33.6478 31.9228 32.8971 32.0654 31.9082 31.414C31.3902 31.073 30.884 30.5162 30.4018 29.9858C29.6655 29.1758 28.9853 28.4276 28.4047 28.6043C27.4299 28.9018 27.4593 30.9162 27.4593 30.9162C27.4593 30.9162 27.467 31.3476 27.2454 31.5762Z" fill="#ABE497"/>
</svg>
