<svg width="55" height="48" viewBox="0 0 55 48" fill="none" xmlns="http://www.w3.org/2000/svg">
<path fill-rule="evenodd" clip-rule="evenodd" d="M5.74615 24C5.74615 37.2548 16.7393 48 30.3 48C43.8607 48 54.8538 37.2548 54.8538 24C54.8538 10.7452 43.8607 0 30.3 0C16.7393 0 5.74615 10.7452 5.74615 24ZM45.7097 23.0815C45.7065 30.9483 39.1593 37.3493 31.1093 37.3525H31.1033C28.6597 37.3517 26.2586 36.7524 24.1261 35.6155L16.3862 37.6L18.4575 30.2048C17.1798 28.0405 16.5075 25.5855 16.5086 23.0702C16.5118 15.2017 23.0615 8.8 31.1092 8.8C35.015 8.80165 38.6809 10.2879 41.4374 12.9854C44.194 15.6828 45.7113 19.2683 45.7097 23.0815Z" fill="#ABE497"/>
<path fill-rule="evenodd" clip-rule="evenodd" d="M19.8917 34.2096L24.4847 33.0319L24.9278 33.289C26.791 34.3697 28.9268 34.9415 31.1044 34.9424H31.1093C37.798 34.9424 43.2418 29.6212 43.2445 23.0807C43.2458 19.9112 41.9847 16.9311 39.6936 14.689C37.4024 12.4469 34.3555 11.2115 31.1141 11.2104C24.4203 11.2104 18.9764 16.5311 18.9737 23.0711C18.9728 25.3124 19.6143 27.4951 20.8291 29.3836L21.1176 29.8324L19.8917 34.2096ZM37.9653 26.1541C38.2198 26.2743 38.3916 26.3554 38.4649 26.4751C38.5561 26.6238 38.5561 27.3378 38.2523 28.1709C37.9481 29.0038 36.4907 29.764 35.7897 29.8663C35.1612 29.9582 34.3658 29.9965 33.4919 29.725C32.9621 29.5607 32.2826 29.3413 31.4122 28.9739C27.9921 27.5304 25.6808 24.2904 25.244 23.678C25.2134 23.6351 25.192 23.6051 25.1801 23.5896L25.1771 23.5857C24.9841 23.3339 23.6904 21.6468 23.6904 19.9008C23.6904 18.2583 24.5159 17.3973 24.8958 17.001C24.9219 16.9739 24.9458 16.9489 24.9673 16.926C25.3016 16.569 25.6969 16.4798 25.9401 16.4798C26.1833 16.4798 26.4267 16.482 26.6393 16.4924C26.6655 16.4937 26.6928 16.4935 26.721 16.4934C26.9336 16.4921 27.1987 16.4906 27.4601 17.1045C27.5607 17.3408 27.7079 17.6911 27.8632 18.0605C28.1771 18.8075 28.5239 19.6328 28.5849 19.7522C28.6761 19.9307 28.7369 20.1389 28.6153 20.377C28.5971 20.4127 28.5802 20.4464 28.5641 20.4785C28.4727 20.6608 28.4055 20.7949 28.2505 20.9718C28.1896 21.0414 28.1266 21.1163 28.0636 21.1913C27.9381 21.3407 27.8126 21.4901 27.7033 21.5965C27.5207 21.7743 27.3305 21.9673 27.5433 22.3243C27.7561 22.6813 28.4883 23.8489 29.5728 24.7945C30.7387 25.8109 31.7519 26.2405 32.2655 26.4583C32.3658 26.5008 32.447 26.5352 32.5066 26.5644C32.8713 26.7429 33.0841 26.7131 33.297 26.4751C33.5098 26.2372 34.2089 25.4339 34.4521 25.0769C34.6953 24.7201 34.9386 24.7795 35.2729 24.8985C35.6074 25.0176 37.401 25.8801 37.7658 26.0586C37.837 26.0935 37.9036 26.1249 37.9653 26.1541Z" fill="#ABE497"/>
</svg>
